# xmcd
#
# Track frame offsets: 
#        150
#        20348
#        40688
#        67829
#        90025
#        113761
#        131521
#        152119
#        165629
#        183069
#        206089
#        225199
#
# Disc length: 3309 seconds
#
# Revision: 0
# Processed by: cddbd v1.5.2PL0 Copyright (c) Steve Scherf et al.
# Submitted via: ExactAudioCopy v0.99pb4
#
DISCID=7f0ceb0c
DTITLE=Shakura Saida -  Brown Sugar
DYEAR=2010
DGENRE=Blues/Rock
TTITLE0=Mr. Right
TTITLE1=Walk Out That Door
TTITLE2=Gonna Tell My Baby
TTITLE3=Break Your Heart
TTITLE4=Angels On High
TTITLE5=Chasing The Sun
TTITLE6=Missing The Good And The Bad
TTITLE7=Sweet Spot
TTITLE8=Brown Sugar
TTITLE9=This Is Not A Love Song
TTITLE10=Anti Love Song
TTITLE11=Outskirts Of Memphis
EXTD=
EXTT0=
EXTT1=
EXTT2=
EXTT3=
EXTT4=
EXTT5=
EXTT6=
EXTT7=
EXTT8=
EXTT9=
EXTT10=
EXTT11=
PLAYORDER=
